<svg viewBox="0 0 1024 1024" version="1.1" xmlns="http://www.w3.org/2000/svg" width="24" height="24">
  <path d="M692.98 348.772c11.255 0 22.415 0.825 33.557 2.129-30.141-140.453-180.626-244.847-352.305-244.847-192.145 0-349.627 130.796-349.627 297.747 0 96.277 52.544 175.352 140.462 236.775l-35.09 105.638 122.697-61.424c43.939 8.66 79.165 17.596 122.958 17.596 11.019 0 21.978-0.503 32.801-1.317-6.851-23.5-10.834-48.143-10.834-73.682 0-153.511 132.001-278.615 295.381-278.615zM496.397 248.253c26.4 0 43.939 17.322 43.939 43.713 0 26.195-17.539 43.79-43.939 43.79-26.394 0-52.855-17.596-52.855-43.79 0-26.391 26.461-43.713 52.855-43.713zM272.373 335.755c-26.394 0-52.962-17.596-52.962-43.79 0-26.391 26.576-43.713 52.962-43.713 26.315 0 43.879 17.322 43.879 43.713 0 26.195-17.564 43.79-43.879 43.79zM1010.654 659.012c0-140.398-140.364-254.855-298.109-254.855-167.065 0-298.349 114.456-298.349 254.855 0 140.644 131.284 254.771 298.349 254.771 34.94 0 70.048-8.798 105.149-17.596l96.208 52.626-26.394-87.521c70.328-52.913 123.144-123.228 123.144-202.28zM619.218 606.386c-17.564 0-35.107-17.322-35.107-35.049 0-17.584 17.545-35.033 35.107-35.033 26.547 0 43.939 17.449 43.939 35.033 0 17.727-17.389 35.049-43.939 35.049zM808.335 606.386c-17.427 0-34.853-17.322-34.853-35.049 0-17.584 17.415-35.033 34.853-35.033 26.394 0 44.006 17.449 44.006 35.033 0 17.727-17.61 35.049-44.006 35.049z" fill="#07c160"></path>
</svg> 