<svg viewBox="0 0 1024 1024" version="1.1" xmlns="http://www.w3.org/2000/svg" width="24" height="24">
  <path d="M1023.795 853.64v-6.348a163.807 163.807 0 0 0-7.3-35.405c-9.705-33.781-30.535-65.331-30.535-65.331a358.973 358.973 0 0 1-34.056-120.952c-5.723-47.765-1.833-105.291-1.833-105.291 1.354-67.844-34.692-175.3-126.439-215.274a176.828 176.828 0 0 0-42.478-14.366c-2.487-0.35-3.689-0.466-3.912-0.466h-305.691c-120.27 0-193.923 62.55-222.594 131.114a259.68 259.68 0 0 0-22.766 59.671c-4.159 19.056-4.375 18.641-4.375 30.691l-0.145 4.82c-0.145 3.001-0.302 6.002-0.302 9.12v210.103a233.417 233.417 0 0 0 8.163 59.465c15.68 55.227 50.79 101.429 131.996 101.429 118.088 0 213.827 5.371 261.921 10.064l13.282 1.302h4.953c113.202 0 203.17-21.57 236.439-220.403 2.7-16.962 5.396-34.261 8.096-51.56 6.927-43.672 14.157-88.917 14.157-134.597z" fill="#1677FF"></path>
  <path d="M814.71 314.688l-220.403-1.957h-9.785c-42.277 0-83.755 23.526-83.755 81.074 0 46.119 26.31 75.435 42.128 90.671a175.45 175.45 0 0 0 134.245 43.425h11.26c37.112-0.641 77.384-9.934 113.068-54.982 19.968-25.144 35.883-60.729 54.557-120.092a136.07 136.07 0 0 0-41.315-38.14z" fill="#1677FF"></path>
  <path d="M347.643 816.639c162.7 0 448.792-177.328 448.792-177.328s-186.56-154.357-312.432-230.664c0 0-40.375 39.75-139.553 31.308a199.627 199.627 0 0 1-106.366-40.375C89.786 299.141 89.319 124.379 89.319 124.379l-88.763 0.35v181.777c0 84.234 36.65 195.577 98.38 265.357 34.127 38.61 87.45 87.818 124.099 119.942 36.65 32.123 80.323 66.015 123.998 98.139 0.641 0.466 1.303 0.932 1.944 1.372l-1.334 0.672z" fill="#FFFFFF"></path>
  <path d="M347.643 816.639c162.7 0 448.792-177.328 448.792-177.328s-186.56-154.357-312.432-230.664c0 0-40.375 39.75-139.553 31.308a199.627 199.627 0 0 1-106.366-40.375C89.786 299.141 89.319 124.379 89.319 124.379l-88.763 0.35v181.777c0 84.234 36.65 195.577 98.38 265.357 34.127 38.61 87.45 87.818 124.099 119.942 36.65 32.123 80.323 66.015 123.998 98.139 0.641 0.466 1.303 0.932 1.944 1.372l-1.334 0.672z" fill="#1677FF" fill-opacity=".15"></path>
  <path d="M347.643 733.539c42.277 0 154.209-78.15 238.092-126.074 83.903-47.924 210.566-125.433 210.566-125.433s-349.607-191.687-699.711-35.745c0 0 21.424 42.932 59.465 99.771 38.059 56.855 109.303 131.743 191.568 187.481z" fill="#FFFFFF"></path>
</svg> 